Coordinates
version=1
nRows=8
nColumns=42
inDegrees=yes

Units are S.I. units (second, meters, Newtons, ...)
If the header above contains a line with 'inDegrees', this indicates whether rotational values are in degrees (yes) or radians (no).

endheader
time	pelvis_tilt	pelvis_list	pelvis_rotation	pelvis_tx	pelvis_ty	pelvis_tz	hip_flexion_r	hip_adduction_r	hip_rotation_r	knee_angle_r	knee_adduction_r	knee_angle_r_beta	ankle_angle_r	subtalar_angle_r	mtp_angle_r	hip_flexion_l	hip_adduction_l	hip_rotation_l	knee_angle_l	knee_adduction_l	knee_angle_l_beta	ankle_angle_l	subtalar_angle_l	mtp_angle_l	lumbar_extension	lumbar_bending	lumbar_rotation	arm_flex_r	arm_add_r	arm_rot_r	elbow_flex_r	pro_sup_r	wrist_flex_r	wrist_dev_r	arm_flex_l	arm_add_l	arm_rot_l	elbow_flex_l	pro_sup_l	wrist_flex_l	wrist_dev_l
      0.71000000	     -2.87380365	     -5.39084966	      1.29239877	     -0.04024881	      0.95052279	     -0.22803707	     25.51185102	      8.22808892	    -10.77153958	     29.26357522	     -3.95515261	      0.51074574	      2.41280276	    -14.17708545	     -7.66095631	      3.76861095	     -8.04197856	     -9.52010143	     57.28281148	     -5.28777611	      0.99977367	     -7.85302841	    -18.85312030	     -7.66095631	     -6.97767444	      8.15206092	      0.59765788	     -6.26990756	     -8.23721928	    -12.39350682	     24.79176379	     90.00000001	      0.00000000	      0.00000000	      9.56537549	     -7.17803457	      0.93331699	     39.73920779	     90.00000001	      0.00000000	      0.00000000
      0.72000000	     -2.86192919	     -5.23845125	      1.58322758	     -0.02589658	      0.95289584	     -0.22744774	     24.33484928	      8.07186699	    -11.12729998	     28.88994529	     -4.01385045	      0.50422467	      3.39908148	    -13.59737019	     -7.65768814	      5.79460352	     -8.07046615	    -10.51333085	     59.26795350	     -6.50211393	      1.03442093	     -6.71966853	    -19.00113457	     -7.65768814	     -6.95158630	      7.94696069	      0.62345627	     -6.07751398	     -8.20035973	    -12.30729495	     25.00171193	     90.00000001	      0.00000000	      0.00000000	      9.19818598	     -6.97808714	      0.62152631	     39.35085059	     90.00000001	      0.00000000	      0.00000000
      0.73000000	     -2.85804148	     -5.00883075	      1.85359341	     -0.01167569	      0.95527306	     -0.22691577	     23.13766467	      7.84310462	    -11.38986206	     28.45905196	     -4.03222841	      0.49670416	      4.29874577	    -12.94117145	     -7.65363343	      7.80251321	     -7.96551710	    -11.42508247	     60.91263129	     -7.61365911	      1.06312597	     -5.53408107	    -19.08454841	     -7.65363343	     -6.91270639	      7.65351657	      0.71080510	     -5.93023205	     -8.16450179	    -12.15341590	     25.24931650	     90.00000001	      0.00000000	      0.00000000	      8.84866494	     -6.75576044	      0.26237481	     38.91001693	     90.00000001	      0.00000000	      0.00000000
      0.74000000	     -2.81265006	     -4.74142843	      2.16345468	      0.00247779	      0.95773751	     -0.22639013	     21.81290484	      7.59752236	    -11.56251423	     27.84559407	     -4.01740061	      0.48599730	      4.98138859	    -12.54901127	     -7.65144076	      9.71385563	     -7.77612740	    -11.93566140	     62.20138534	     -8.34960320	      1.08561897	     -4.49880608	    -19.17569174	     -7.65144076	     -6.91566574	      7.30040843	      0.67991189	     -5.70968628	     -8.13058674	    -12.04930138	     25.54651260	     90.00000001	      0.00000000	      0.00000000	      8.39794282	     -6.67919965	      0.14438103	     38.61042204	     90.00000001	      0.00000000	      0.00000000
      0.75000000	     -2.89810332	     -4.50160843	      2.31080475	      0.01647793	      0.95992634	     -0.22571034	     20.63879646	      7.45171698	    -11.53119516	     27.23732512	     -3.99534845	      0.47538100	      5.75772747	    -12.08986982	     -7.64874518	     11.71556410	     -7.57699183	    -12.49321399	     63.19314422	     -9.01020880	      1.10292843	     -3.31640521	    -19.16142744	     -7.64874518	     -6.79135813	      6.98338727	      0.83148978	     -5.50227735	     -8.13219037	    -11.87004683	     25.90976315	     90.00000001	      0.00000000	      0.00000000	      7.90426843	     -6.60624253	     -0.02355998	     38.22239514	     90.00000001	      0.00000000	      0.00000000
      0.76000000	     -2.93268974	     -4.18289910	      2.41461554	      0.03039364	      0.96212464	     -0.22503502	     19.39046206	      7.24606058	    -11.51796653	     26.56950445	     -4.01355687	      0.46372533	      6.28827939	    -11.69192667	     -7.64672087	     13.58247984	     -7.23963293	    -12.74440508	     63.83715888	     -9.32334427	      1.11416861	     -2.49313941	    -19.18541725	     -7.64672087	     -6.74098458	      6.56666645	      1.04863793	     -5.30447685	     -8.11907843	    -11.70677237	     26.26374127	     90.00000001	      0.00000000	      0.00000000	      7.41967230	     -6.56406088	     -0.12854910	     37.93694727	     90.00000001	      0.00000000	      0.00000000
      0.77000000	     -3.04872771	     -3.90672856	      2.38759737	      0.04416986	      0.96404550	     -0.22423672	     18.21223789	      7.11678408	    -11.23806929	     25.87966575	     -3.94392171	      0.45168538	      7.00760455	    -11.20131993	     -7.64351952	     15.46419217	     -6.94285296	    -12.86960380	     64.21009452	     -9.37753154	      1.12067756	     -1.58087460	    -19.12319778	     -7.64351952	     -6.62058810	      6.19892567	      1.34296519	     -5.13521883	     -8.18464111	    -11.34535523	     26.80565440	     90.00000001	      0.00000000	      0.00000000	      6.90236727	     -6.51780594	     -0.33676189	     37.53715922	     90.00000001	      0.00000000	      0.00000000
      0.78000000	     -3.12454645	     -3.60546013	      2.34595407	      0.05791782	      0.96589144	     -0.22345991	     16.96803504	      6.95681668	    -11.04592222	     25.11773394	     -3.90161814	      0.43838716	      7.52638441	    -10.75151684	     -7.64074883	     17.21536782	     -6.55607942	    -12.70437736	     64.23920251	     -9.16622379	      1.12118559	     -0.98081032	    -19.07499156	     -7.64074883	     -6.55383460	      5.80838904	      1.62620185	     -4.93701764	     -8.23750007	    -10.98302249	     27.34417950	     90.00000001	      0.00000000	      0.00000000	      6.33065065	     -6.53397466	     -0.51583820	     37.23012225	     90.00000001	      0.00000000	      0.00000000
